inDegrees=no
num_controls=7
num_derivatives=13
num_iterations=117
num_multipliers=7
num_parameters=0
num_slacks=7
num_states=26
objective=0.516966
objective_accelerations=0.039704
objective_balance=0.002185
objective_effort=0.043461
objective_height=0.420002
objective_ligament=0.011615
solver_duration=1565.762419
status=Solve_Succeeded
success=true
DataType=double
version=3
OpenSimVersion=4.5
endheader
time	/jointset/ground_pelvis/pelvis_tilt/value	/jointset/ground_pelvis/pelvis_tx/value	/jointset/ground_pelvis/pelvis_ty/value	/jointset/hip_l/hip_flexion_l/value	/jointset/hip_l/hip_adduction_l/value	/jointset/hip_l/hip_rotation_l/value	/jointset/back/lumbar_extension/value	/jointset/patellofemoral_l/patellar_flexion_l/value	/jointset/knee_l/knee_flexion_l/value	/jointset/knee_l/knee_adduction_l/value	/jointset/knee_l/knee_rotation_l/value	/jointset/ankle_l/ankle_angle_l/value	/jointset/subtalar_l/subtalar_angle_l/value	/jointset/ground_pelvis/pelvis_tilt/speed	/jointset/ground_pelvis/pelvis_tx/speed	/jointset/ground_pelvis/pelvis_ty/speed	/jointset/hip_l/hip_flexion_l/speed	/jointset/hip_l/hip_adduction_l/speed	/jointset/hip_l/hip_rotation_l/speed	/jointset/back/lumbar_extension/speed	/jointset/patellofemoral_l/patellar_flexion_l/speed	/jointset/knee_l/knee_flexion_l/speed	/jointset/knee_l/knee_adduction_l/speed	/jointset/knee_l/knee_rotation_l/speed	/jointset/ankle_l/ankle_angle_l/speed	/jointset/subtalar_l/subtalar_angle_l/speed	/forceset/tau_hip_flexion_l	/forceset/tau_hip_adduction_l	/forceset/tau_hip_rotation_l	/forceset/tau_knee_flexion_l	/forceset/tau_ankle_angle_l	/forceset/tau_subtalar_angle_l	/forceset/tau_lumbar_extension	lambda_cid13_p0	lambda_cid13_p1	lambda_cid13_p2	lambda_cid13_p3	lambda_cid13_p4	lambda_cid13_p5	lambda_cid14_p0	/jointset/ground_pelvis/pelvis_tilt/accel	/jointset/ground_pelvis/pelvis_tx/accel	/jointset/ground_pelvis/pelvis_ty/accel	/jointset/hip_l/hip_flexion_l/accel	/jointset/hip_l/hip_adduction_l/accel	/jointset/hip_l/hip_rotation_l/accel	/jointset/back/lumbar_extension/accel	/jointset/patellofemoral_l/patellar_flexion_l/accel	/jointset/knee_l/knee_flexion_l/accel	/jointset/knee_l/knee_adduction_l/accel	/jointset/knee_l/knee_rotation_l/accel	/jointset/ankle_l/ankle_angle_l/accel	/jointset/subtalar_l/subtalar_angle_l/accel	gamma_cid13_p0	gamma_cid13_p1	gamma_cid13_p2	gamma_cid13_p3	gamma_cid13_p4	gamma_cid13_p5	gamma_cid14_p0
0.5	-0.1170936579834678	-0.05451816940365152	0.8251457518360451	0.8861323631668202	-0.3238715109054719	-0.1227954711358735	-0.776487914688752	0.7886477171842409	0.7886477171843101	-0.1090295447150342	-0.1745143487647088	0.07387717990455414	-0.006120193266033249	-0.1971131603765176	-0.2058495086577215	-0.3386107697179032	1.485111422423361	-0.04084295168193799	0.4580569388517634	-0.8455505281093487	1.440333863427883	1.440333863428097	0.1325063636630769	0.0001571157775579318	0.2440046119267179	0.03299430250845492	-0.2772530433022	0.02387043616380636	-0.003459768055153531	-0.2127569333772908	0.1151296442479771	0.0455663132823823	0.3261621021737212	-7.595785010701295	-19.88793688589178	4.348011703546068	-9.200717140148335	-701.6549950164451	-73.84080132702444	-14.88916104748119	0.2753711726129379	0.6312701683515837	-0.129215796289882	-1.378916584199722	0.224199715114699	-0.3361006055345034	1.617244182723713	-1.076225412966817	-1.076225412966825	-0.2804436143414855	0.027204501033778	-0.0194814650979658	0.2402875261557247	-5.808950020991835e-08	-5.098269524355408e-07	7.418840166478429e-08	-5.609169146371125e-08	-8.727080122553224e-08	-5.979761811936503e-08	-8.250239335947512e-08
0.51	-0.1190507619389081	-0.05654495596672429	0.8217539412181831	0.9009122474584125	-0.3242691168245391	-0.118233104426295	-0.7848615078305512	0.8029949107381091	0.8029949107380765	-0.1077188624544517	-0.1745124526518467	0.07631557257050695	-0.005778846456429714	-0.1942786477551376	-0.1994943165090536	-0.3396732988141007	1.470647673432454	-0.03867639242127369	0.4543298523047275	-0.8290661117486534	1.428883272682994	1.428883272683181	0.1296444884711201	0.0002043501326630872	0.2436270708221162	0.03526437373922889	-0.2837755628109803	0.02434901520574529	-0.003675827873735429	-0.2152732623337795	0.1153609511362151	0.04591781377773211	0.3324781713824932	-7.749168545303729	-19.96456250093664	4.304058523353969	-9.256565302260229	-705.6753875457537	-73.68113920466315	-14.36179813765217	0.2918338360198598	0.6396575725736252	-0.08308088248576168	-1.512774098011654	0.2132025912359841	-0.4040704168234754	1.679338637934992	-1.212695463870613	-1.212695463874655	-0.2869787404762695	-0.009146374255482563	-0.05393468456526412	0.2188236897758399	-7.929097222666677e-08	-3.919475659364082e-07	2.533056613832875e-07	-2.306590775893443e-08	-1.006375448109943e-07	-4.833145134655759e-08	-9.006798132411743e-08
0.52	-0.1209786522623068	-0.05850778784142063	0.8183538434261191	0.9155409602518033	-0.3246449934390593	-0.1137106201296886	-0.7930671971537047	0.8172209544728145	0.8172209544726591	-0.1064363827995928	-0.1745106100508128	0.07874878097512994	-0.005415107580870874	-0.1912704339689961	-0.1930585709824333	-0.3402682045583295	1.454877122782519	-0.03649709077287133	0.4500804562562833	-0.8119697643802576	1.41610389959328	1.416103899593441	0.126865842525029	0.0001464134075918819	0.2429677596605564	0.03747271569950816	-0.2902980823197538	0.02482759424770606	-0.003891887692529374	-0.217789591290255	0.1155922580244612	0.0462693142731083	0.3387942405912649	-7.905614288864734	-20.04145995513122	4.261071742044923	-9.337921053987236	-709.7650065864337	-73.54529314299735	-13.83136665320276	0.3101114055651681	0.6473808439421097	-0.03569112589611512	-1.640276916005668	0.2267481926622835	-0.4405625058161628	1.739630384263759	-1.341981881931759	-1.34198188193175	-0.2637977651683726	0.006170284998490937	-0.07583547648950825	0.2279416720568012	-1.119816597163589e-07	-2.446712111777013e-07	5.130090197372762e-07	2.410752233597294e-08	-1.254402989372492e-07	-3.288037073355673e-08	-1.039345058763624e-07
0.53	-0.1228755925275049	-0.06040594012689256	0.8149501527856452	0.9300054617580436	-0.3249992227783538	-0.1092318089175761	-0.8010989942030993	0.831312524846771	0.8313125248466784	-0.1051825056469428	-0.1745089793592016	0.08117388976246076	-0.005029878930871403	-0.1880895630713537	-0.1865666266396075	-0.3403896579735542	1.437810545910826	-0.03435339526622595	0.445621011716902	-0.7942997249084406	1.401988231268123	1.401988231268263	0.1238986572150829	0.0001759121288617106	0.2420008867498353	0.03955256561348635	-0.2967527489794393	0.02524492782209778	-0.004088498902353048	-0.2201461059839591	0.1153979702745616	0.04660631738368716	0.3449806737877974	-8.200049669411555	-20.08856540697487	4.214094808782334	-9.21968158976488	-713.8004925290996	-73.38875763872812	-13.29859656183801	0.3262699991913507	0.6508999275430745	0.01163969151926298	-1.771759764690496	0.2074192598622856	-0.4578563200886213	1.794178817096532	-1.479628653688145	-1.479628653691135	-0.3148284018474877	0.0008984442779688442	-0.1150833728047847	0.1948902666075764	-1.266154462936556e-07	-1.444808820787731e-07	6.516248182836158e-07	5.120693158036327e-08	-1.336038439908587e-07	-1.756366092583913e-08	-1.083864044078222e-07
0.54	-0.1247398850702575	-0.06223901322931825	0.8115476500391903	0.9442929151571804	-0.3253321673565426	-0.1047994363292724	-0.8089513932400842	0.8452562846682985	0.8452562846682701	-0.1039586302449818	-0.1745071419246608	0.08358773578579665	-0.004624475058624257	-0.1847408894806161	-0.180042734373186	-0.340030625754571	1.419467501361552	-0.03224013855171948	0.440792731493942	-0.7760901618983901	1.386541789107751	1.386541789107872	0.1208654923875478	0.0001877619936014863	0.2407152068614608	0.04150776014903502	-0.3032074156391262	0.0256622613964982	-0.004285110112188036	-0.2225026206776599	0.1152036825246667	0.04694332049427779	0.3511671069843258	-8.49802015218842	-20.1359930767215	4.168244805511474	-9.130225882892477	-717.9141413256566	-73.27048185054871	-12.76435843323817	0.3436719441841197	0.6537704286612985	0.06040600094545884	-1.895570451521844	0.2206604342344907	-0.5143296425318981	1.847535091910466	-1.608136648974485	-1.608136648974481	-0.276993668686192	0.002640513692461254	-0.1395968720201191	0.203010596370908	-1.212713850529826e-07	-9.638573030555804e-08	6.562714017236186e-07	5.609678584120255e-08	-1.233580513470733e-07	-2.395616689924284e-09	-1.024221209588385e-07
